<svg width="58" height="56" viewBox="0 0 58 56" fill="none"
    xmlns="http://www.w3.org/2000/svg">
    <g filter="url(#filter0_d_28_15)">
        <path d="M32.6833 1.49068C32.1997 1.01808 31.6255 0.643194 30.9935 0.38742C30.3615 0.131646 29.6841 0 29 0C28.3159 0 27.6385 0.131646 27.0065 0.38742C26.3745 0.643194 25.8003 1.01808 25.3167 1.49068L4 22.3164V41.8945C4 43.5138 4.65848 45.0668 5.83058 46.2118C7.00268 47.3567 8.5924 48 10.25 48H47.75C49.4076 48 50.9973 47.3567 52.1694 46.2118C53.3415 45.0668 54 43.5138 54 41.8945V22.3164L32.6833 1.49068ZM47.75 41.8945H37.3333V35.4187C37.3333 33.3579 36.4953 31.3815 35.0036 29.9243C33.5119 28.4671 31.4887 27.6485 29.3792 27.6485H28.6208C26.5113 27.6485 24.4881 28.4671 22.9964 29.9243C21.5047 31.3815 20.6667 33.3579 20.6667 35.4187V41.8945H10.25V24.844L29 6.52768L47.75 24.844V41.8945Z" fill="black"/>
    </g>
    <defs>
        <filter id="filter0_d_28_15" x="0" y="0" width="58" height="56" filterUnits="userSpaceOnUse" color-interpolation-filters="sRGB">
            <feFlood flood-opacity="0" result="BackgroundImageFix"/>
            <feColorMatrix in="SourceAlpha" type="matrix" values="0 0 0 0 0 0 0 0 0 0 0 0 0 0 0 0 0 0 127 0" result="hardAlpha"/>
            <feOffset dy="4"/>
            <feGaussianBlur stdDeviation="2"/>
            <feComposite in2="hardAlpha" operator="out"/>
            <feColorMatrix type="matrix" values="0 0 0 0 0 0 0 0 0 0 0 0 0 0 0 0 0 0 0.25 0"/>
            <feBlend mode="normal" in2="BackgroundImageFix" result="effect1_dropShadow_28_15"/>
            <feBlend mode="normal" in="SourceGraphic" in2="effect1_dropShadow_28_15" result="shape"/>
        </filter>
    </defs>
</svg>
